<?xml version="1.0" encoding="utf-8"?>
<!-- Generator: Adobe Illustrator 25.2.1, SVG Export Plug-In . SVG Version: 6.00 Build 0)  -->
<svg version="1.1" xmlns="http://www.w3.org/2000/svg" xmlns:xlink="http://www.w3.org/1999/xlink" x="0px" y="0px"
	 viewBox="0 0 112 112" enable-background="new 0 0 112 112" xml:space="preserve">
<g id="Layer_1">
	
		<radialGradient id="SVGID_1_" cx="56" cy="103.0567" r="39.1359" gradientTransform="matrix(1 0 0 0.1 0 92.751)" gradientUnits="userSpaceOnUse">
		<stop  offset="0" style="stop-color:#949591"/>
		<stop  offset="0.142" style="stop-color:#9B9C98;stop-opacity:0.858"/>
		<stop  offset="0.3764" style="stop-color:#AFB0AC;stop-opacity:0.6236"/>
		<stop  offset="0.6743" style="stop-color:#D1D1CE;stop-opacity:0.3257"/>
		<stop  offset="1" style="stop-color:#FFFFFF;stop-opacity:0"/>
	</radialGradient>
	<ellipse fill="url(#SVGID_1_)" cx="56" cy="103.057" rx="55.206" ry="3.943"/>
	<g>
		
			<linearGradient id="SVGID_2_" gradientUnits="userSpaceOnUse" x1="55.4419" y1="-1957.6582" x2="55.4419" y2="-2025.2651" gradientTransform="matrix(1 0 0 -1 0 -1950.1024)">
			<stop  offset="0" style="stop-color:#CDDDE7"/>
			<stop  offset="0.2393" style="stop-color:#C4D7E0"/>
			<stop  offset="0.6365" style="stop-color:#AEC1CB"/>
			<stop  offset="1" style="stop-color:#95A9B4"/>
		</linearGradient>
		<path fill="url(#SVGID_2_)" d="M55.442,44.992l30.171,30.171c6.435-7.197,10.38-16.677,10.38-27.057
			c0-22.42-18.13-40.55-40.55-40.55s-40.55,18.13-40.55,40.55c0,10.38,3.944,19.86,10.38,27.057L55.442,44.992z"/>
		<g>
			<g>
				<path fill="#FFFFFF" d="M55.442,44.992L80.699,70.25c5.19-5.882,8.304-13.632,8.304-22.143
					c0-18.545-15.016-33.561-33.561-33.561S21.881,29.561,21.881,48.106c0,8.442,3.114,16.192,8.304,22.143L55.442,44.992z"/>
			</g>
			<g opacity="0.5">
				<path fill="#C7C8C9" d="M55.442,44.992L80.699,70.25c5.19-5.882,8.304-13.632,8.304-22.143
					c0-18.545-15.016-33.561-33.561-33.561S21.881,29.561,21.881,48.106c0,8.442,3.114,16.192,8.304,22.143L55.442,44.992z"/>
			</g>
		</g>
		
			<linearGradient id="SVGID_3_" gradientUnits="userSpaceOnUse" x1="55.2927" y1="-1964.6476" x2="55.5408" y2="-2020.4639" gradientTransform="matrix(1 0 0 -1 0 -1950.1024)">
			<stop  offset="0.3263" style="stop-color:#FFFFFF"/>
			<stop  offset="0.904" style="stop-color:#CDDBE3"/>
		</linearGradient>
		<path fill="url(#SVGID_3_)" stroke="#96A2A3" stroke-width="0.173" stroke-miterlimit="10" d="M55.442,44.992L80.699,70.25
			c5.19-5.882,8.304-13.632,8.304-22.143c0-18.545-15.016-33.561-33.561-33.561S21.881,29.561,21.881,48.106
			c0,8.442,3.114,16.192,8.304,22.143L55.442,44.992z"/>
		
			<linearGradient id="SVGID_4_" gradientUnits="userSpaceOnUse" x1="55.2927" y1="-1964.6476" x2="55.5408" y2="-2020.4639" gradientTransform="matrix(1 0 0 -1 0 -1950.1024)">
			<stop  offset="0.3263" style="stop-color:#FFFFFF"/>
			<stop  offset="0.904" style="stop-color:#CDDBE3"/>
		</linearGradient>
		<path fill="url(#SVGID_4_)" stroke="#96A2A3" stroke-width="0.173" stroke-miterlimit="10" d="M55.442,44.992L80.699,70.25
			c5.19-5.882,8.304-13.632,8.304-22.143c0-18.545-15.016-33.561-33.561-33.561S21.881,29.561,21.881,48.106
			c0,8.442,3.114,16.192,8.304,22.143L55.442,44.992z"/>
		<path fill="none" stroke="#96A2A3" stroke-width="0.173" stroke-miterlimit="10" d="M55.442,44.992l30.171,30.171
			c6.435-7.197,10.38-16.677,10.38-27.057c0-22.42-18.13-40.55-40.55-40.55s-40.55,18.13-40.55,40.55
			c0,10.38,3.944,19.86,10.38,27.057L55.442,44.992z"/>
		
			<line fill="none" stroke="#96A2A3" stroke-width="0.173" stroke-miterlimit="10" x1="55.442" y1="7.556" x2="55.442" y2="29.284"/>
		
			<line fill="none" stroke="#96A2A3" stroke-width="0.173" stroke-miterlimit="10" x1="18.905" y1="30.322" x2="38.073" y2="41.532"/>
		
			<linearGradient id="SVGID_5_" gradientUnits="userSpaceOnUse" x1="26.1313" y1="148.1594" x2="29.4635" y2="142.3879" gradientTransform="matrix(1 0 0 1 0 -106)">
			<stop  offset="0" style="stop-color:#FFFFFF;stop-opacity:0"/>
			<stop  offset="0.7903" style="stop-color:#A4B4BE;stop-opacity:0.7903"/>
			<stop  offset="1" style="stop-color:#8FA2AC"/>
		</linearGradient>
		<path opacity="0.5" fill="url(#SVGID_5_)" enable-background="new    " d="M38.073,41.532l-19.168-11.21
			c0,0-1.73,3.391-2.422,6.297l20.275,11.487C36.758,48.106,36.551,44.093,38.073,41.532"/>
		
			<line fill="none" stroke="#96A2A3" stroke-width="0.173" stroke-miterlimit="10" x1="72.741" y1="41.532" x2="91.909" y2="30.322"/>
		
			<linearGradient id="SVGID_6_" gradientUnits="userSpaceOnUse" x1="82.37" y1="141.9506" x2="79.187" y2="136.4375" gradientTransform="matrix(1 0 0 1 0 -106)">
			<stop  offset="0" style="stop-color:#8FA2AC"/>
			<stop  offset="0.2097" style="stop-color:#A4B4BE;stop-opacity:0.7903"/>
			<stop  offset="1" style="stop-color:#FFFFFF;stop-opacity:0"/>
		</linearGradient>
		<path opacity="0.5" fill="url(#SVGID_6_)" enable-background="new    " d="M72.741,41.532l19.168-11.21
			c0,0-1.661-3.183-3.183-5.397l-19.03,11.141C69.697,36.066,72.188,38.972,72.741,41.532"/>
		<path fill="#FFFFFF" stroke="#DCDDDE" stroke-width="0.173" stroke-miterlimit="10" d="M70.043,59.662
			c2.491-3.183,4.014-7.197,4.014-11.556c0-10.311-8.373-18.684-18.684-18.684s-18.684,8.373-18.684,18.684
			c0,4.36,1.522,8.373,4.014,11.556"/>
		
			<linearGradient id="SVGID_7_" gradientUnits="userSpaceOnUse" x1="49.0692" y1="125.0774" x2="55.4419" y2="125.0774" gradientTransform="matrix(1 0 0 1 0 -106)">
			<stop  offset="0" style="stop-color:#FFFFFF;stop-opacity:0"/>
			<stop  offset="0.7903" style="stop-color:#A4B4BE;stop-opacity:0.7903"/>
			<stop  offset="1" style="stop-color:#8FA2AC"/>
		</linearGradient>
		<path opacity="0.5" fill="url(#SVGID_7_)" enable-background="new    " d="M55.442,29.423V7.487c-2.007,0-6.366,0.554-6.366,0.554
			v22.628C49.076,30.668,51.982,29.423,55.442,29.423z"/>
		<circle fill="#FFFFFF" stroke="#96A2A3" stroke-width="0.173" stroke-miterlimit="10" cx="55.442" cy="48.106" r="19.376"/>
		<path fill="#E6E7E7" d="M68.174,15.445c0.277-0.554,1.107-0.208,0.9,0.346l-7.335,26.434l0.623,0.83
			c1.73,2.214,2.284,5.051,1.384,7.612c-0.623,1.799-1.799,3.252-3.252,4.221c-2.007,1.246-4.498,1.661-6.92,0.83
			c-2.007-0.692-3.668-2.145-4.636-4.083c-0.969-1.868-1.107-4.152-0.415-6.089c0.623-1.73,1.73-3.252,3.252-4.221
			c0.692-0.484,1.592-0.83,2.422-1.038l0.83-0.208L68.174,15.445z"/>
		
			<linearGradient id="SVGID_8_" gradientUnits="userSpaceOnUse" x1="-971.6293" y1="73.9543" x2="-935.0662" y2="73.9543" gradientTransform="matrix(0.8394 -0.5435 0.5435 0.8394 820.641 -543.8201)">
			<stop  offset="0" style="stop-color:#078A8D"/>
			<stop  offset="1" style="stop-color:#05B4B9"/>
		</linearGradient>
		<path fill="url(#SVGID_8_)" d="M67.482,14.753c0.277-0.554,1.107-0.208,0.9,0.346l-7.335,26.434l0.623,0.83
			c1.73,2.214,2.284,5.051,1.384,7.612c-0.623,1.799-1.799,3.252-3.252,4.221c-2.007,1.246-4.498,1.661-6.92,0.83
			c-2.007-0.692-3.668-2.145-4.636-4.083c-0.969-1.868-1.107-4.152-0.415-6.089c0.623-1.73,1.73-3.252,3.252-4.221
			c0.692-0.484,1.592-0.83,2.422-1.038l0.83-0.208L67.482,14.753z"/>
	</g>
</g>
<g id="Isolation_Mode">
</g>
</svg>
